<?xml version="1.0" encoding="UTF-8"?>
<svg version="1.2" baseProfile="tiny-ps" width="1024" height="1024" viewBox="0 0 1024 1024" fill="none" xmlns="http://www.w3.org/2000/svg">
<title>Splyto</title>
<desc>Splyto official BIMI logo</desc>
<g clip-path="url(#clip0_1_109)">
<path d="M1024 0H0V1024H1024V0Z" fill="url(#paint0_linear_1_109)"/>
<mask id="mask0_1_109" mask-type="luminance" maskUnits="userSpaceOnUse" x="121" y="303" width="690" height="705">
<path d="M121.512 425.068L247.448 1007.45L810.726 885.643L684.79 303.263L121.512 425.068Z" fill="white"/>
</mask>
<g mask="url(#mask0_1_109)">
<mask id="mask1_1_109" mask-type="luminance" maskUnits="userSpaceOnUse" x="150" y="167" width="859" height="884">
<path d="M150.439 537.52L642.9 167.938L1008.41 680.674L515.882 1050.3L150.439 537.52Z" fill="white"/>
</mask>
<g mask="url(#mask1_1_109)">
<mask id="mask2_1_109" mask-type="luminance" maskUnits="userSpaceOnUse" x="150" y="167" width="859" height="884">
<path d="M150.439 537.52L642.9 167.938L1008.41 680.674L515.882 1050.3L150.439 537.52Z" fill="white"/>
</mask>
<g mask="url(#mask2_1_109)">
<path d="M327.138 405.09L150.439 537.52L281.563 721.476L297.879 607.979L556.715 651.091L729.389 893.266L800.007 840.237L605.769 567.55L310.908 518.426L327.339 404.948L327.138 405.09Z" fill="url(#paint1_linear_1_109)"/>
</g>
</g>
</g>
<mask id="mask3_1_109" mask-type="luminance" maskUnits="userSpaceOnUse" x="621" y="69" width="148" height="265">
<path d="M646.72 69.5925L621.909 318.558L744.077 333.305L768.888 84.3396L646.72 69.5925Z" fill="white"/>
</mask>
<g mask="url(#mask3_1_109)">
<mask id="mask4_1_109" mask-type="luminance" maskUnits="userSpaceOnUse" x="405" y="67" width="470" height="478">
<path d="M405.754 235.158L705.691 67.9563L874.476 377.176L574.353 544.219L405.754 235.158Z" fill="white"/>
</mask>
<g mask="url(#mask4_1_109)">
<mask id="mask5_1_109" mask-type="luminance" maskUnits="userSpaceOnUse" x="405" y="67" width="470" height="478">
<path d="M405.754 235.158L705.691 67.9563L874.476 377.176L574.353 544.219L405.754 235.158Z" fill="white"/>
</mask>
<g mask="url(#mask5_1_109)">
<path d="M735.17 319.155L625.326 316.703L641.121 264.878L689.69 102.033C692.231 93.3993 693.922 86.0946 698.198 77.2239L711.557 151.309L740.665 313.636C741.216 316.617 738.568 319.132 735.17 319.155Z" fill="url(#paint2_linear_1_109)"/>
</g>
</g>
</g>
<mask id="mask6_1_109" mask-type="luminance" maskUnits="userSpaceOnUse" x="466" y="51" width="242" height="307">
<path d="M493.97 51.1844L466.055 331.296L679.799 357.097L707.714 76.9859L493.97 51.1844Z" fill="white"/>
</mask>
<g mask="url(#mask6_1_109)">
<mask id="mask7_1_109" mask-type="luminance" maskUnits="userSpaceOnUse" x="405" y="67" width="470" height="478">
<path d="M405.754 235.158L705.691 67.9563L874.476 377.176L574.353 544.219L405.754 235.158Z" fill="white"/>
</mask>
<g mask="url(#mask7_1_109)">
<mask id="mask8_1_109" mask-type="luminance" maskUnits="userSpaceOnUse" x="405" y="67" width="470" height="478">
<path d="M405.754 235.158L705.691 67.9563L874.476 377.176L574.353 544.219L405.754 235.158Z" fill="white"/>
</mask>
<g mask="url(#mask8_1_109)">
<path d="M506.2 317.12L479.934 316.666C478.185 317.551 473.166 314.271 474.702 312.449L490.291 294.304L681.564 81.521L630.678 185.479L608.127 231.258L565.297 316.981L506.224 316.97L506.264 317.101L506.2 317.12Z" fill="url(#paint3_linear_1_109)"/>
</g>
</g>
</g>
<mask id="mask9_1_109" mask-type="luminance" maskUnits="userSpaceOnUse" x="554" y="93" width="151" height="296">
<path d="M582.555 93.2954L554.641 373.407L676.808 388.154L704.723 108.043L582.555 93.2954Z" fill="white"/>
</mask>
<g mask="url(#mask9_1_109)">
<mask id="mask10_1_109" mask-type="luminance" maskUnits="userSpaceOnUse" x="405" y="67" width="470" height="478">
<path d="M405.754 235.158L705.691 67.9563L874.476 377.176L574.353 544.219L405.754 235.158Z" fill="white"/>
</mask>
<g mask="url(#mask10_1_109)">
<mask id="mask11_1_109" mask-type="luminance" maskUnits="userSpaceOnUse" x="405" y="67" width="470" height="478">
<path d="M405.754 235.158L705.691 67.9563L874.476 377.176L574.353 544.219L405.754 235.158Z" fill="white"/>
</mask>
<g mask="url(#mask11_1_109)">
<path d="M614.579 322.088C615.966 339.838 626.559 366.689 626.374 380.836L573.679 321.965L609.018 250.589L672.126 124.922L633.886 255.398C627.173 278.093 619.266 299.359 614.579 322.088Z" fill="url(#paint4_linear_1_109)"/>
</g>
</g>
</g>
<mask id="mask12_1_109" mask-type="luminance" maskUnits="userSpaceOnUse" x="539" y="373" width="77" height="164">
<path d="M554.639 373.434L539.133 529.029L600.184 536.398L615.69 380.804L554.639 373.434Z" fill="white"/>
</mask>
<g mask="url(#mask12_1_109)">
<mask id="mask13_1_109" mask-type="luminance" maskUnits="userSpaceOnUse" x="405" y="67" width="470" height="478">
<path d="M405.754 235.158L705.691 67.9563L874.476 377.176L574.353 544.219L405.754 235.158Z" fill="white"/>
</mask>
<g mask="url(#mask13_1_109)">
<mask id="mask14_1_109" mask-type="luminance" maskUnits="userSpaceOnUse" x="405" y="67" width="470" height="478">
<path d="M405.754 235.158L705.691 67.9563L874.476 377.176L574.353 544.219L405.754 235.158Z" fill="white"/>
</mask>
<g mask="url(#mask14_1_109)">
<path d="M567.515 525.679L599.389 408.208C600.162 405.472 601.828 404.541 604.512 405.377L606.401 405.881C609.002 406.671 610.021 408.438 609.247 411.175L577.374 528.645C576.6 531.382 574.935 532.313 572.226 531.627L570.381 531.039C567.78 530.249 566.761 528.481 567.535 525.745L567.515 525.679Z" fill="url(#paint5_linear_1_109)"/>
</g>
</g>
</g>
<mask id="mask15_1_109" mask-type="luminance" maskUnits="userSpaceOnUse" x="612" y="318" width="71" height="102">
<path d="M621.868 318.576L612.563 411.946L673.614 419.316L682.919 325.945L621.868 318.576Z" fill="white"/>
</mask>
<g mask="url(#mask15_1_109)">
<mask id="mask16_1_109" mask-type="luminance" maskUnits="userSpaceOnUse" x="405" y="67" width="470" height="478">
<path d="M405.754 235.158L705.691 67.9563L874.476 377.176L574.353 544.219L405.754 235.158Z" fill="white"/>
</mask>
<g mask="url(#mask16_1_109)">
<mask id="mask17_1_109" mask-type="luminance" maskUnits="userSpaceOnUse" x="405" y="67" width="470" height="478">
<path d="M405.754 235.158L705.691 67.9563L874.476 377.176L574.353 544.219L405.754 235.158Z" fill="white"/>
</mask>
<g mask="url(#mask17_1_109)">
<path d="M656.845 330.667C648.674 352.443 647.147 365.134 638.884 385.22L625.089 327.218C634.766 325.661 643.816 326.868 653.478 327.104C655.273 327.064 657.825 328.155 656.865 330.733L656.845 330.667Z" fill="url(#paint6_linear_1_109)"/>
</g>
</g>
</g>
<mask id="mask18_1_109" mask-type="luminance" maskUnits="userSpaceOnUse" x="545" y="342" width="44" height="129">
<path d="M557.71 342.34L545.308 466.789L575.833 470.474L588.235 346.025L557.71 342.34Z" fill="white"/>
</mask>
<g mask="url(#mask18_1_109)">
<mask id="mask19_1_109" mask-type="luminance" maskUnits="userSpaceOnUse" x="405" y="67" width="470" height="478">
<path d="M405.754 235.158L705.691 67.9563L874.476 377.176L574.353 544.219L405.754 235.158Z" fill="white"/>
</mask>
<g mask="url(#mask19_1_109)">
<mask id="mask20_1_109" mask-type="luminance" maskUnits="userSpaceOnUse" x="405" y="67" width="470" height="478">
<path d="M405.754 235.158L705.691 67.9563L874.476 377.176L574.353 544.219L405.754 235.158Z" fill="white"/>
</mask>
<g mask="url(#mask20_1_109)">
<path d="M549.18 443.151L569.906 368.023C570.68 365.286 572.429 364.402 575.029 365.192L577.169 365.834C579.853 366.671 580.789 368.392 580.015 371.128L559.289 446.257C558.539 448.843 556.85 449.924 554.166 449.088L552.07 448.36C549.469 447.57 548.45 445.803 549.2 443.217L549.18 443.151Z" fill="url(#paint7_linear_1_109)"/>
</g>
</g>
</g>
<mask id="mask21_1_109" mask-type="luminance" maskUnits="userSpaceOnUse" x="603" y="380" width="74" height="133">
<path d="M615.667 380.785L603.259 505.302L664.309 512.671L676.718 388.155L615.667 380.785Z" fill="white"/>
</mask>
<g mask="url(#mask21_1_109)">
<mask id="mask22_1_109" mask-type="luminance" maskUnits="userSpaceOnUse" x="405" y="67" width="470" height="478">
<path d="M405.754 235.158L705.691 67.9563L874.476 377.176L574.353 544.219L405.754 235.158Z" fill="white"/>
</mask>
<g mask="url(#mask22_1_109)">
<mask id="mask23_1_109" mask-type="luminance" maskUnits="userSpaceOnUse" x="405" y="67" width="470" height="478">
<path d="M405.754 235.158L705.691 67.9563L874.476 377.176L574.353 544.219L405.754 235.158Z" fill="white"/>
</mask>
<g mask="url(#mask23_1_109)">
<path d="M630.959 479.309C629.996 483.033 627.617 484.822 625.409 484.415C622.883 484.103 620.454 481.115 621.296 478.144L637.426 418.206C638.204 415.253 642.174 414.128 644.599 415.257C646.229 416.054 647.265 419.032 646.463 422.135L630.959 479.309Z" fill="url(#paint8_linear_1_109)"/>
</g>
</g>
</g>
</g>
<defs>
<linearGradient id="paint0_linear_1_109" x1="0" y1="0" x2="1024" y2="1024" gradientUnits="userSpaceOnUse">
<stop stop-color="#141E30"/>
<stop offset="1" stop-color="#243B55"/>
</linearGradient>
<linearGradient id="paint1_linear_1_109" x1="146.884" y1="532.49" x2="763.394" y2="469.512" gradientUnits="userSpaceOnUse">
<stop stop-color="#FF0080"/>
<stop offset="1" stop-color="#8C1BAB"/>
</linearGradient>
<linearGradient id="paint2_linear_1_109" x1="565.237" y1="117.289" x2="800.074" y2="171.591" gradientUnits="userSpaceOnUse">
<stop stop-color="#00F2FF"/>
<stop offset="1" stop-color="#00C9DB"/>
</linearGradient>
<linearGradient id="paint3_linear_1_109" x1="427.594" y1="158.049" x2="674.801" y2="346.683" gradientUnits="userSpaceOnUse">
<stop stop-color="#00F2FF"/>
<stop offset="1" stop-color="#00C9DB"/>
</linearGradient>
<linearGradient id="paint4_linear_1_109" x1="527.442" y1="168.519" x2="770.415" y2="239.697" gradientUnits="userSpaceOnUse">
<stop stop-color="#00F2FF"/>
<stop offset="1" stop-color="#00C9DB"/>
</linearGradient>
<linearGradient id="paint5_linear_1_109" x1="536.238" y1="424.971" x2="655.837" y2="460.732" gradientUnits="userSpaceOnUse">
<stop stop-color="#00F2FF"/>
<stop offset="1" stop-color="#00C9DB"/>
</linearGradient>
<linearGradient id="paint6_linear_1_109" x1="621.712" y1="328.235" x2="678.735" y2="341.017" gradientUnits="userSpaceOnUse">
<stop stop-color="#00F2FF"/>
<stop offset="1" stop-color="#00C9DB"/>
</linearGradient>
<linearGradient id="paint7_linear_1_109" x1="528.73" y1="378.195" x2="610.642" y2="404.177" gradientUnits="userSpaceOnUse">
<stop stop-color="#00F2FF"/>
<stop offset="1" stop-color="#00C9DB"/>
</linearGradient>
<linearGradient id="paint8_linear_1_109" x1="604.812" y1="425.912" x2="671.526" y2="446.72" gradientUnits="userSpaceOnUse">
<stop stop-color="#00F2FF"/>
<stop offset="1" stop-color="#00C9DB"/>
</linearGradient>
<clipPath id="clip0_1_109">
<rect width="1024" height="1024" fill="white"/>
</clipPath>
</defs>
</svg>
