<svg xmlns="http://www.w3.org/2000/svg" viewBox="0 0 640 640">
  <path
    fill="#FFFFFF"
    d="M349.1 69.5C330.4 91.7 299.8 108.9 269.4 106.5C265.4 76.9 277.8 45.4 295.9 24.2C316 0.8 350.3-16.1 378.3-18.4C381.2 12 369.6 41.8 349.1 69.5zM478.8 289.9C478.3 242.9 499.7 207.2 543.7 180.5C519.1 145.4 482.2 126.2 433.5 122C387.2 118.3 336.7 149.1 318.2 149.1C298.7 149.1 253.6 123.2 218.3 123.2C145.3 124.3 77 180.5 77 296.4C77 330.6 83.3 366 95.9 402.4C112.7 449.4 173.3 564.6 236.4 562.7C269.5 562 292.8 539.3 335.8 539.3C377.5 539.3 399.1 562.7 436 562.7C499.5 561.8 554.4 467.1 570.4 419.9C480.4 377.2 478.8 292.3 478.8 289.9z"
  />
</svg>
