<?xml version="1.0" encoding="UTF-8"?>
<svg id="Layer_1" data-name="Layer 1" xmlns="http://www.w3.org/2000/svg" viewBox="0 0 419.62 275.76" fill="#7F786D">
    <rect fill="none" y="64.08" width="357.12" height="47.82"/>
  <rect fill="none" x="336.28" y="91.92" width="21.99" height="28.94"/>
  <rect fill="none" x="65.04" y="77.97" width="87.17" height="119.9"/>
  <rect fill="none" x="252.94" y="15.99" width="158.35" height="247.78"/>
  <rect fill="none" x="373.77" y="98.98" width="44.62" height="48.53"/>
  <g>
    <polygon points="379.47 89.67 408.07 89.67 408.07 75.31 384.76 75.31 341.66 135.82 298.43 75.31 274.92 75.31 274.92 191.96 302.4 191.96 302.4 121.64 331.96 163.11 351.04 163.11 379.47 123.34 379.47 89.67"/>
    <rect x="380.59" y="141.62" width="27.48" height="50.34"/>
  </g>
  <rect fill="none" x="382.05" y="102.84" width="28.04" height="40.87"/>
  <polygon fill="none" points="397.82 94.79 416.4 94.79 406.92 135.58 388.35 135.58 397.82 94.79"/>
  <rect fill="none" x="94.6" width="229.18" height="275.76"/>
  <path d="M235.06,189.02c-11.42,4.59-22.59,6.33-33.53,5.21-10.93-1.15-20.77-4.9-29.49-11.23-8.72-6.36-15.46-14.96-20.25-25.8-4.85-10.92-6.65-21.52-5.41-31.82,1.27-10.3,5.26-19.57,11.98-27.85,6.69-8.32,15.66-14.76,26.96-19.35,9.11-3.63,18.18-5.46,27.21-5.46,9.02-.03,17.46,1.64,25.33,5.02,7.85,3.35,14.59,8.34,20.19,14.95l-27.41,10.98c-4.74-3.6-10.16-5.68-16.28-6.26-6.12-.57-12.34.4-18.62,2.91-6.52,2.65-11.66,6.39-15.43,11.23-3.75,4.84-5.91,10.33-6.52,16.44-.62,6.13.53,12.45,3.45,18.98,2.81,6.37,6.72,11.5,11.72,15.39,4.98,3.9,10.63,6.26,16.93,7.13,6.28.86,12.84-.07,19.66-2.79,8.21-3.3,14.15-8.03,17.84-14.2,3.68-6.16,4.9-12.79,3.64-19.91l-36.33,14.58-8.34-18.79,63.22-25.43c4.68,8.93,7.45,17.73,8.34,26.36.86,8.6-.05,16.78-2.74,24.5-2.7,7.74-7.08,14.62-13.15,20.65-6.09,6-13.73,10.86-22.99,14.58h0Z"/>
  <rect fill="none" x="69.61" y="211.81" width="350.01" height="23.98"/>
  <path d="M77.44,231.27l-3.58-11.93h2.86l2.09,8.31h.06l2.28-8.31h2.47l2.28,8.31h.13l2.02-8.31h2.86l-3.51,11.93h-2.61l-2.34-7.8h-.13l-2.34,7.8h-2.54Z"/>
  <path d="M103.55,231.27v-11.93h8.4v2.06h-5.79v2.88h5.33v2.06h-5.33v2.88h5.79v2.06h-8.4Z"/>
  <path d="M125.2,231.27v-11.93h4.95c1.38,0,2.43.3,3.13.88.68.55,1.04,1.28,1.04,2.19,0,.72-.22,1.28-.65,1.69s-.98.72-1.63.88v.12c.47,0,.92.12,1.3.37.43.25.78.59,1.04,1,.26.43.39.92.39,1.5,0,.62-.18,1.18-.52,1.69-.31.5-.78.91-1.44,1.18-.62.3-1.39.44-2.34.44h-5.28ZM127.81,229.21h2.15c.73,0,1.26-.12,1.57-.37.34-.28.52-.66.52-1.13,0-.5-.18-.89-.52-1.18-.36-.33-.84-.5-1.5-.5h-2.21v3.18h0ZM127.81,224.34h1.95c.52,0,.95-.12,1.3-.37.39-.28.59-.69.59-1.18,0-.4-.18-.74-.52-1-.31-.28-.75-.44-1.3-.44h-2.02v3h.01Z"/>
  <path d="M167.18,231.27h-4.37v-11.93h4.43c1.26,0,2.34.25,3.26.74.92.47,1.6,1.13,2.09,2,.47.88.71,1.94.71,3.18s-.24,2.34-.71,3.25c-.49.88-1.17,1.56-2.09,2.06-.92.47-2.02.69-3.32.69ZM165.43,229.09h1.69c1.17,0,2.05-.28,2.67-.88.61-.62.92-1.6.92-2.93s-.31-2.28-.92-2.88c-.62-.62-1.5-.94-2.67-.94h-1.69v7.62h0Z"/>
  <path d="M186.44,231.27v-11.93h8.4v2.06h-5.79v2.88h5.33v2.06h-5.33v2.88h5.79v2.06h-8.4Z"/>
  <path d="M210.31,219.34l2.99,9.05h.13l3.06-9.05h2.86l-4.3,11.93h-3.39l-4.3-11.93h2.95Z"/>
  <path d="M232.07,231.27v-11.93h8.4v2.06h-5.79v2.88h5.33v2.06h-5.33v2.88h5.79v2.06h-8.4Z"/>
  <path d="M253.73,231.27v-11.93h2.61v9.87h5.33v2.06h-7.94Z"/>
  <path d="M286.01,225.27c0,1.35-.26,2.46-.78,3.37-.49.92-1.17,1.62-2.09,2.12-.88.47-1.85.69-2.93.69-1.14,0-2.13-.25-2.99-.74-.88-.5-1.57-1.2-2.09-2.12-.52-.91-.78-2.01-.78-3.3s.26-2.39.78-3.3c.52-.91,1.2-1.6,2.09-2.06.86-.5,1.85-.74,2.99-.74,1.08,0,2.05.25,2.93.74.92.47,1.6,1.16,2.09,2.06.52.92.78,2.02.78,3.3h0ZM283.34,225.27c0-1.25-.3-2.2-.84-2.88-.57-.66-1.33-1-2.28-1s-1.75.34-2.34,1c-.57.67-.84,1.62-.84,2.88s.28,2.28.84,2.93c.61.67,1.38,1,2.34,1s1.71-.33,2.28-1c.55-.66.84-1.64.84-2.93Z"/>
  <path d="M299.17,231.27v-11.93h4.89c.95,0,1.76.18,2.41.5.65.34,1.14.81,1.5,1.43.39.59.59,1.29.59,2.12s-.19,1.5-.59,2.12c-.36.59-.88,1.05-1.57,1.38-.65.34-1.47.5-2.41.5h-2.21v3.87h-2.61ZM301.78,225.4h1.82c.73,0,1.27-.19,1.63-.56.39-.37.59-.84.59-1.43,0-.62-.19-1.09-.59-1.43-.36-.37-.92-.56-1.69-.56h-1.76v3.99h0Z"/>
  <path d="M321.43,219.34h3.26l3.39,7.99h.13l3.45-7.99h3.26v11.93h-2.53v-7.8h-.13l-3.19,7.75h-1.76l-3.26-7.75h-.06v7.8h-2.53v-11.93h-.01Z"/>
  <path d="M348.42,231.27v-11.93h8.4v2.06h-5.79v2.88h5.33v2.06h-5.33v2.88h5.79v2.06h-8.4Z"/>
  <path d="M380.48,219.34v11.93h-2.28l-5.47-7.5h-.06v7.5h-2.61v-11.93h2.28l5.41,7.5h.06v-7.5h2.67Z"/>
  <path d="M393.3,221.41v-2.06h10.22v2.06h-3.78v9.87h-2.61v-9.87h-3.84.01Z"/>
  <g>
    <polygon points="113.46 162.67 97.63 162.67 97.63 139.74 146.05 139.74 146.05 116.03 97.63 116.03 97.63 97.55 149.83 97.55 149.83 72.72 66.44 72.72 66.44 189 113.46 189 113.46 162.67"/>
    <rect x="139.6" y="162.67" width="11.74" height="26.33"/>
  </g>
  <polygon points="401.5 92.8 419.07 96.75 410.36 137.6 392.79 133.64 401.5 92.8"/>
  <polygon points="124.33 162.67 135.16 162.67 129.72 189 118.72 189 124.33 162.67"/>
</svg>
