<svg
  xmlns="http://www.w3.org/2000/svg"
  viewBox="-110 -15 490 335"
  width="490" height="335"
  role="img"
  aria-label="Splyto globe illustration">

  <!--
    ╔══════════════════════════════════════════════════════════════╗
    ║  Splyto — Globe Branding Asset  v1.0                        ║
    ║  All text converted to vector outlines (font-independent).   ║
    ║  Safe to use in any vector editor or renderer.               ║
    ║                                                              ║
    ║  Layers / groups:                                            ║
    ║    #globe-grid      — latitude / longitude grid lines        ║
    ║    #globe-axes      — equator & meridian reference lines     ║
    ║    #travel-path     — dashed arc between two destinations    ║
    ║    #dot-departure   — green departure pin                    ║
    ║    #dot-arrival     — magenta arrival pin                    ║
    ║    #pill-currencies — EUR · USD · GBP · JPY badge            ║
    ║    #pill-settled    — Split settled ✓ badge                  ║
    ║    #pill-location   — Paris · 3 friends badge                ║
    ╚══════════════════════════════════════════════════════════════╝

    Colour palette
    ──────────────
    --green-primary   : #2EAF6E   (departure dot, settled badge)
    --green-glow      : #4ECD8C   (grid lines, settled badge label & dot)
    --magenta-primary : #D44FA8   (arrival dot)
    --white-16        : rgba(255,255,255,0.16)
    --white-40        : rgba(255,255,255,0.40)  (currencies label)
    --white-36        : rgba(255,255,255,0.36)  (location label)
  -->

  <defs>
    <!-- ── Grid line strokes ── -->
    <style>
      .globe-ring-outer { fill:none; stroke:rgba(78,205,140,0.20); stroke-width:1; }
      .globe-ring-inner { fill:none; stroke:rgba(78,205,140,0.12); stroke-width:0.8; }
      .globe-axis-h     { stroke:rgba(78,205,140,0.20); stroke-width:0.9; }
      .globe-axis-v     { stroke:rgba(78,205,140,0.12); stroke-width:0.9; }
    </style>
  </defs>

  <!-- ════════════════════════════════════════════════════════════
       GLOBE  (scaled 1.10× around centre 150,150)
       ═══════════════════════════════════════════════════════════ -->
  <g id="globe" transform="translate(150,150) scale(1.10) translate(-150,-150)">

    <!-- ── Grid ── -->
    <g id="globe-grid">
      <!-- Concentric circles -->
      <circle id="ring-136" class="globe-ring-outer" cx="150" cy="150" r="136"/>
      <circle id="ring-110" class="globe-ring-inner" cx="150" cy="150" r="110"/>
      <circle id="ring-82"  class="globe-ring-inner" cx="150" cy="150" r="82"/>

      <!-- Latitude ellipses -->
      <ellipse id="lat-38"  class="globe-ring-inner" cx="150" cy="150" rx="136" ry="38"/>
      <ellipse id="lat-82"  class="globe-ring-inner" cx="150" cy="150" rx="136" ry="82"/>
      <ellipse id="lat-120" class="globe-ring-inner" cx="150" cy="150" rx="136" ry="120"/>

      <!-- Longitude ellipses -->
      <ellipse id="lng-55"  class="globe-ring-inner" cx="150" cy="150" rx="55"  ry="136"/>
      <ellipse id="lng-108" class="globe-ring-inner" cx="150" cy="150" rx="108" ry="136"/>
    </g>

    <!-- ── Axes ── -->
    <g id="globe-axes">
      <line id="equator"  class="globe-axis-h" x1="14"  y1="150" x2="286" y2="150"/>
      <line id="meridian" class="globe-axis-v" x1="150" y1="14"  x2="150" y2="286"/>
    </g>

    <!-- ── Travel path ── -->
    <path id="travel-path"
          d="M 75,124 Q 124,84 150,150 Q 176,210 238,170"
          fill="none"
          stroke="rgba(46,175,110,0.80)"
          stroke-width="2.2"
          stroke-linecap="round"
          stroke-dasharray="7 5"/>

    <!-- ── Departure pin — green ── -->
    <g id="dot-departure">
      <circle cx="75" cy="124" r="16"  fill="none" stroke="#2EAF6E" stroke-opacity="0.10" stroke-width="0.6"/>
      <circle cx="75" cy="124" r="10"  fill="none" stroke="#2EAF6E" stroke-opacity="0.28" stroke-width="0.9"/>
      <circle cx="75" cy="124" r="4.8" fill="#2EAF6E" fill-opacity="0.95"/>
    </g>

    <!-- ── Arrival pin — magenta ── -->
    <g id="dot-arrival">
      <circle cx="238" cy="170" r="16"  fill="none" stroke="#D44FA8" stroke-opacity="0.10" stroke-width="0.6"/>
      <circle cx="238" cy="170" r="10"  fill="none" stroke="#D44FA8" stroke-opacity="0.28" stroke-width="0.9"/>
      <circle cx="238" cy="170" r="4.8" fill="#D44FA8" fill-opacity="0.95"/>
    </g>

    <!-- ── Globe centre dot ── -->
    <circle id="globe-center" cx="150" cy="150" r="3" fill="rgba(255,255,255,0.16)"/>

  </g><!-- /globe -->


  <!-- ════════════════════════════════════════════════════════════
       PILL 1 — EUR · USD · GBP · JPY  (top right)
       rect: x=292 y=8 w=164 h=30  |  label fill rgba(255,255,255,0.40)
       ═══════════════════════════════════════════════════════════ -->
  <g id="pill-currencies">
    <rect x="292" y="8" width="164" height="30" rx="15"
          fill="rgba(255,255,255,0.06)"
          stroke="rgba(255,255,255,0.16)" stroke-width="1"/>
    <!-- Label paths — Arial Bold 13px, centred on (374, 23) -->
    <path id="pill-currencies-label" fill="rgba(255,255,255,0.40)" d="M304.014 27.650L296.936 27.650L296.936 18.344L303.836 18.344L303.836 19.918L298.815 19.918L298.815 21.981L303.487 21.981L303.487 23.549L298.815 23.549L298.815 26.082L304.014 26.082L304.014 27.650ZM306.244 23.308L306.244 18.344L308.123 18.344L308.123 23.384Q308.123 24.584 308.193 24.939L308.193 24.939Q308.314 25.510 308.768 25.856Q309.222 26.202 310.009 26.202L310.009 26.202Q310.808 26.202 311.215 25.875Q311.621 25.549 311.703 25.073Q311.786 24.596 311.786 23.492L311.786 23.492L311.786 18.344L313.665 18.344L313.665 23.232Q313.665 24.907 313.513 25.599Q313.360 26.291 312.951 26.767Q312.541 27.243 311.856 27.526Q311.170 27.808 310.066 27.808L310.066 27.808Q308.733 27.808 308.044 27.500Q307.355 27.193 306.955 26.701Q306.556 26.209 306.429 25.669L306.429 25.669Q306.244 24.869 306.244 23.308L306.244 23.308ZM318.181 27.650L316.302 27.650L316.302 18.344L320.256 18.344Q321.748 18.344 322.424 18.595Q323.100 18.845 323.506 19.487Q323.913 20.128 323.913 20.953L323.913 20.953Q323.913 22.000 323.297 22.683Q322.681 23.365 321.456 23.543L321.456 23.543Q322.065 23.898 322.462 24.323Q322.859 24.749 323.532 25.834L323.532 25.834L324.668 27.650L322.421 27.650L321.062 25.625Q320.339 24.539 320.072 24.257Q319.806 23.974 319.507 23.870Q319.209 23.765 318.561 23.765L318.561 23.765L318.181 23.765L318.181 27.650ZM318.181 19.918L318.181 22.280L319.571 22.280Q320.923 22.280 321.259 22.165Q321.596 22.051 321.786 21.772Q321.977 21.492 321.977 21.073L321.977 21.073Q321.977 20.604 321.726 20.315Q321.475 20.026 321.018 19.950L321.018 19.950Q320.790 19.918 319.647 19.918L319.647 19.918L318.181 19.918ZM332.703 24.012L330.919 24.012L330.919 22.229L332.703 22.229L332.703 24.012ZM339.824 23.308L339.824 18.344L341.702 18.344L341.702 23.384Q341.702 24.584 341.772 24.939L341.772 24.939Q341.893 25.510 342.347 25.856Q342.801 26.202 343.588 26.202L343.588 26.202Q344.388 26.202 344.794 25.875Q345.200 25.549 345.283 25.073Q345.365 24.596 345.365 23.492L345.365 23.492L345.365 18.344L347.244 18.344L347.244 23.232Q347.244 24.907 347.092 25.599Q346.939 26.291 346.530 26.767Q346.120 27.243 345.435 27.526Q344.749 27.808 343.645 27.808L343.645 27.808Q342.312 27.808 341.623 27.500Q340.934 27.193 340.535 26.701Q340.135 26.209 340.008 25.669L340.008 25.669Q339.824 24.869 339.824 23.308L339.824 23.308ZM349.398 24.622L349.398 24.622L351.227 24.444Q351.392 25.365 351.896 25.796Q352.401 26.228 353.258 26.228L353.258 26.228Q354.165 26.228 354.626 25.844Q355.086 25.460 355.086 24.946L355.086 24.946Q355.086 24.615 354.892 24.384Q354.699 24.152 354.216 23.981L354.216 23.981Q353.886 23.866 352.712 23.574L352.712 23.574Q351.201 23.200 350.592 22.654L350.592 22.654Q349.735 21.886 349.735 20.781L349.735 20.781Q349.735 20.071 350.138 19.452Q350.541 18.833 351.300 18.509Q352.058 18.185 353.131 18.185L353.131 18.185Q354.883 18.185 355.768 18.953Q356.654 19.721 356.698 21.004L356.698 21.004L354.819 21.086Q354.699 20.369 354.302 20.055Q353.905 19.740 353.112 19.740L353.112 19.740Q352.293 19.740 351.830 20.077L351.830 20.077Q351.531 20.293 351.531 20.655L351.531 20.655Q351.531 20.985 351.810 21.219L351.810 21.219Q352.166 21.518 353.537 21.842Q354.908 22.165 355.565 22.511Q356.222 22.857 356.593 23.457Q356.965 24.057 356.965 24.939L356.965 24.939Q356.965 25.739 356.520 26.437Q356.076 27.135 355.264 27.475Q354.451 27.815 353.239 27.815L353.239 27.815Q351.474 27.815 350.528 26.999Q349.582 26.183 349.398 24.622ZM359.189 27.650L359.189 18.344L362.623 18.344Q363.785 18.344 364.394 18.522L364.394 18.522Q365.213 18.763 365.797 19.379Q366.381 19.994 366.686 20.886Q366.990 21.778 366.990 23.086L366.990 23.086Q366.990 24.235 366.705 25.066L366.705 25.066Q366.356 26.082 365.708 26.710L365.708 26.710Q365.219 27.186 364.388 27.453L364.388 27.453Q363.766 27.650 362.725 27.650L362.725 27.650L359.189 27.650ZM361.912 19.918L361.068 19.918L361.068 26.082L362.471 26.082Q363.258 26.082 363.607 25.993L363.607 25.993Q364.064 25.879 364.366 25.606Q364.667 25.333 364.857 24.708Q365.048 24.082 365.048 23.003L365.048 23.003Q365.048 21.924 364.857 21.346Q364.667 20.769 364.324 20.445Q363.981 20.121 363.455 20.007L363.455 20.007Q363.061 19.918 361.912 19.918L361.912 19.918ZM375.603 24.012L373.819 24.012L373.819 22.229L375.603 22.229L375.603 24.012ZM389.217 24.228L387.065 24.228L387.065 22.660L391.115 22.660L391.115 26.367Q390.525 26.939 389.404 27.374Q388.284 27.808 387.135 27.808L387.135 27.808Q385.675 27.808 384.590 27.196Q383.504 26.583 382.958 25.444Q382.413 24.304 382.413 22.965L382.413 22.965Q382.413 21.511 383.022 20.382Q383.631 19.252 384.806 18.649L384.806 18.649Q385.701 18.185 387.034 18.185L387.034 18.185Q388.767 18.185 389.741 18.912Q390.715 19.639 390.995 20.921L390.995 20.921L389.128 21.270Q388.932 20.585 388.389 20.188Q387.846 19.791 387.034 19.791L387.034 19.791Q385.802 19.791 385.075 20.572Q384.349 21.353 384.349 22.889L384.349 22.889Q384.349 24.546 385.085 25.374Q385.821 26.202 387.015 26.202L387.015 26.202Q387.605 26.202 388.198 25.971Q388.792 25.739 389.217 25.409L389.217 25.409L389.217 24.228ZM393.504 27.650L393.504 18.344L397.224 18.344Q398.329 18.344 398.871 18.436Q399.414 18.528 399.843 18.820Q400.271 19.112 400.557 19.598Q400.842 20.083 400.842 20.686L400.842 20.686Q400.842 21.340 400.490 21.886Q400.138 22.432 399.535 22.705L399.535 22.705Q400.385 22.952 400.842 23.549Q401.299 24.146 401.299 24.952L401.299 24.952Q401.299 25.587 401.004 26.187Q400.709 26.786 400.198 27.145Q399.687 27.504 398.938 27.586L398.938 27.586Q398.468 27.637 396.672 27.650L396.672 27.650L393.504 27.650ZM396.462 19.893L395.383 19.893L395.383 22.045L396.615 22.045Q397.713 22.045 397.980 22.013L397.980 22.013Q398.462 21.956 398.738 21.680Q399.014 21.404 399.014 20.953L399.014 20.953Q399.014 20.521 398.776 20.251Q398.538 19.982 398.068 19.925L398.068 19.925Q397.789 19.893 396.462 19.893L396.462 19.893ZM396.900 23.594L395.383 23.594L395.383 26.082L397.123 26.082Q398.138 26.082 398.411 26.025L398.411 26.025Q398.830 25.948 399.094 25.653Q399.357 25.358 399.357 24.863L399.357 24.863Q399.357 24.444 399.154 24.152Q398.951 23.860 398.567 23.727Q398.183 23.594 396.900 23.594L396.900 23.594ZM405.415 27.650L403.536 27.650L403.536 18.344L406.551 18.344Q408.265 18.344 408.786 18.484L408.786 18.484Q409.586 18.693 410.125 19.395Q410.665 20.096 410.665 21.207L410.665 21.207Q410.665 22.064 410.354 22.648Q410.043 23.232 409.563 23.565Q409.084 23.898 408.589 24.006L408.589 24.006Q407.916 24.139 406.640 24.139L406.640 24.139L405.415 24.139L405.415 27.650ZM406.323 19.918L405.415 19.918L405.415 22.559L406.444 22.559Q407.554 22.559 407.929 22.413Q408.303 22.267 408.516 21.956Q408.729 21.645 408.729 21.232L408.729 21.232Q408.729 20.724 408.430 20.394Q408.132 20.064 407.675 19.982L407.675 19.982Q407.339 19.918 406.323 19.918L406.323 19.918ZM418.992 24.012L417.208 24.012L417.208 22.229L418.992 22.229L418.992 24.012ZM429.483 24.355L429.483 18.344L431.356 18.344L431.356 24.235Q431.356 25.390 431.152 26.012L431.152 26.012Q430.879 26.824 430.162 27.316Q429.445 27.808 428.271 27.808L428.271 27.808Q426.893 27.808 426.150 27.037Q425.408 26.266 425.401 24.774L425.401 24.774L427.172 24.571Q427.204 25.371 427.407 25.701L427.407 25.701Q427.712 26.202 428.334 26.202L428.334 26.202Q428.962 26.202 429.223 25.844Q429.483 25.485 429.483 24.355L429.483 24.355ZM435.884 27.650L434.005 27.650L434.005 18.344L437.020 18.344Q438.734 18.344 439.255 18.484L439.255 18.484Q440.054 18.693 440.594 19.395Q441.133 20.096 441.133 21.207L441.133 21.207Q441.133 22.064 440.822 22.648Q440.511 23.232 440.032 23.565Q439.553 23.898 439.058 24.006L439.058 24.006Q438.385 24.139 437.109 24.139L437.109 24.139L435.884 24.139L435.884 27.650ZM436.792 19.918L435.884 19.918L435.884 22.559L436.912 22.559Q438.023 22.559 438.398 22.413Q438.772 22.267 438.985 21.956Q439.197 21.645 439.197 21.232L439.197 21.232Q439.197 20.724 438.899 20.394Q438.601 20.064 438.144 19.982L438.144 19.982Q437.807 19.918 436.792 19.918L436.792 19.918ZM447.642 27.650L445.770 27.650L445.770 23.733L442.361 18.344L444.564 18.344L446.754 22.026L448.899 18.344L451.064 18.344L447.642 23.746L447.642 27.650Z"/>
  </g><!-- /pill-currencies -->


  <!-- ════════════════════════════════════════════════════════════
       PILL 2 — Split settled ✓  (middle left)
       rect: x=-106 y=152 w=148 h=30  |  green badge
       ═══════════════════════════════════════════════════════════ -->
  <g id="pill-settled">
    <rect x="-106" y="152" width="148" height="30" rx="15"
          fill="rgba(46,175,110,0.16)"
          stroke="rgba(46,175,110,0.38)" stroke-width="1"/>
    <!-- Status dot -->
    <circle id="pill-settled-dot" cx="-88" cy="167" r="4" fill="#4ECD8C"/>
    <!-- Label paths — Arial Bold 13px left-aligned from x=-80, centred vertically on y=167 -->
    <!-- ✓ rendered from Arial Unicode (same size/baseline) -->
    <path id="pill-settled-label" fill="#4ECD8C" d="M-80 167.422L-80 167.422L-78.172 167.244Q-78.007 168.165-77.502 168.596Q-76.998 169.028-76.141 169.028L-76.141 169.028Q-75.233 169.028-74.773 168.644Q-74.313 168.260-74.313 167.746L-74.313 167.746Q-74.313 167.416-74.506 167.184Q-74.700 166.952-75.182 166.781L-75.182 166.781Q-75.512 166.667-76.687 166.375L-76.687 166.375Q-78.197 166.000-78.807 165.454L-78.807 165.454Q-79.664 164.686-79.664 163.582L-79.664 163.582Q-79.664 162.871-79.260 162.252Q-78.857 161.633-78.099 161.309Q-77.340 160.986-76.268 160.986L-76.268 160.986Q-74.516 160.986-73.630 161.754Q-72.745 162.522-72.700 163.804L-72.700 163.804L-74.579 163.886Q-74.700 163.169-75.096 162.855Q-75.493 162.541-76.287 162.541L-76.287 162.541Q-77.105 162.541-77.569 162.877L-77.569 162.877Q-77.867 163.093-77.867 163.455L-77.867 163.455Q-77.867 163.785-77.588 164.020L-77.588 164.020Q-77.232 164.318-75.861 164.642Q-74.490 164.966-73.833 165.312Q-73.176 165.657-72.805 166.257Q-72.434 166.857-72.434 167.740L-72.434 167.740Q-72.434 168.539-72.878 169.238Q-73.322 169.936-74.135 170.275Q-74.947 170.615-76.160 170.615L-76.160 170.615Q-77.924 170.615-78.870 169.799Q-79.816 168.984-80 167.422ZM-70.267 173.014L-70.267 163.709L-68.603 163.709L-68.603 164.699Q-68.280 164.191-67.727 163.874Q-67.175 163.556-66.502 163.556L-66.502 163.556Q-65.328 163.556-64.509 164.477Q-63.690 165.397-63.690 167.041L-63.690 167.041Q-63.690 168.730-64.516 169.666Q-65.341 170.602-66.515 170.602L-66.515 170.602Q-67.074 170.602-67.527 170.380Q-67.981 170.158-68.483 169.618L-68.483 169.618L-68.483 173.014L-70.267 173.014ZM-68.502 166.965L-68.502 166.965Q-68.502 168.101-68.051 168.644Q-67.600 169.187-66.953 169.187L-66.953 169.187Q-66.331 169.187-65.918 168.688Q-65.506 168.190-65.506 167.054L-65.506 167.054Q-65.506 165.994-65.931 165.480Q-66.356 164.966-66.985 164.966L-66.985 164.966Q-67.639 164.966-68.070 165.470Q-68.502 165.975-68.502 166.965ZM-59.841 170.450L-61.625 170.450L-61.625 161.144L-59.841 161.144L-59.841 170.450ZM-55.579 162.795L-57.363 162.795L-57.363 161.144L-55.579 161.144L-55.579 162.795ZM-55.579 170.450L-57.363 170.450L-57.363 163.709L-55.579 163.709L-55.579 170.450ZM-51.229 163.709L-50.010 163.709L-50.010 165.131L-51.229 165.131L-51.229 167.847Q-51.229 168.673-51.194 168.809Q-51.159 168.946-51.035 169.034Q-50.911 169.123-50.733 169.123L-50.733 169.123Q-50.486 169.123-50.016 168.952L-50.016 168.952L-49.864 170.336Q-50.486 170.602-51.273 170.602L-51.273 170.602Q-51.755 170.602-52.143 170.440Q-52.530 170.279-52.711 170.021Q-52.892 169.764-52.962 169.326L-52.962 169.326Q-53.019 169.015-53.019 168.070L-53.019 168.070L-53.019 165.131L-53.837 165.131L-53.837 163.709L-53.019 163.709L-53.019 162.369L-51.229 161.328L-51.229 163.709ZM-44.489 168.527L-44.489 168.527L-42.699 168.254Q-42.584 168.774-42.235 169.044Q-41.886 169.314-41.258 169.314L-41.258 169.314Q-40.566 169.314-40.217 169.060L-40.217 169.060Q-39.982 168.882-39.982 168.584L-39.982 168.584Q-39.982 168.381-40.109 168.247L-40.109 168.247Q-40.242 168.120-40.705 168.012L-40.705 168.012Q-42.864 167.536-43.441 167.143L-43.441 167.143Q-44.241 166.597-44.241 165.626L-44.241 165.626Q-44.241 164.750-43.549 164.153Q-42.857 163.556-41.404 163.556L-41.404 163.556Q-40.020 163.556-39.347 164.007Q-38.674 164.458-38.420 165.340L-38.420 165.340L-40.102 165.651Q-40.210 165.258-40.512 165.048Q-40.813 164.839-41.372 164.839L-41.372 164.839Q-42.077 164.839-42.381 165.035L-42.381 165.035Q-42.584 165.175-42.584 165.397L-42.584 165.397Q-42.584 165.588-42.407 165.721L-42.407 165.721Q-42.165 165.899-40.740 166.222Q-39.315 166.546-38.750 167.016L-38.750 167.016Q-38.192 167.492-38.192 168.343L-38.192 168.343Q-38.192 169.269-38.966 169.936Q-39.741 170.602-41.258 170.602L-41.258 170.602Q-42.635 170.602-43.438 170.044Q-44.241 169.485-44.489 168.527ZM-32.076 168.304L-32.076 168.304L-30.299 168.603Q-30.642 169.580-31.381 170.091Q-32.121 170.602-33.232 170.602L-33.232 170.602Q-34.990 170.602-35.834 169.453L-35.834 169.453Q-36.501 168.533-36.501 167.130L-36.501 167.130Q-36.501 165.454-35.625 164.505Q-34.749 163.556-33.409 163.556L-33.409 163.556Q-31.905 163.556-31.035 164.550Q-30.166 165.543-30.204 167.594L-30.204 167.594L-34.673 167.594Q-34.654 168.387-34.241 168.828Q-33.828 169.269-33.213 169.269L-33.213 169.269Q-32.794 169.269-32.508 169.041Q-32.222 168.812-32.076 168.304ZM-34.641 166.502L-31.975 166.502Q-31.994 165.727-32.375 165.324Q-32.756 164.921-33.302 164.921L-33.302 164.921Q-33.886 164.921-34.266 165.346L-34.266 165.346Q-34.647 165.772-34.641 166.502L-34.641 166.502ZM-26.228 163.709L-25.009 163.709L-25.009 165.131L-26.228 165.131L-26.228 167.847Q-26.228 168.673-26.193 168.809Q-26.158 168.946-26.034 169.034Q-25.910 169.123-25.733 169.123L-25.733 169.123Q-25.485 169.123-25.015 168.952L-25.015 168.952L-24.863 170.336Q-25.485 170.602-26.272 170.602L-26.272 170.602Q-26.755 170.602-27.142 170.440Q-27.529 170.279-27.710 170.021Q-27.891 169.764-27.961 169.326L-27.961 169.326Q-28.018 169.015-28.018 168.070L-28.018 168.070L-28.018 165.131L-28.837 165.131L-28.837 163.709L-28.018 163.709L-28.018 162.369L-26.228 161.328L-26.228 163.709ZM-21.249 163.709L-20.030 163.709L-20.030 165.131L-21.249 165.131L-21.249 167.847Q-21.249 168.673-21.214 168.809Q-21.179 168.946-21.055 169.034Q-20.931 169.123-20.754 169.123L-20.754 169.123Q-20.506 169.123-20.036 168.952L-20.036 168.952L-19.884 170.336Q-20.506 170.602-21.293 170.602L-21.293 170.602Q-21.775 170.602-22.163 170.440Q-22.550 170.279-22.731 170.021Q-22.912 169.764-22.982 169.326L-22.982 169.326Q-23.039 169.015-23.039 168.070L-23.039 168.070L-23.039 165.131L-23.858 165.131L-23.858 163.709L-23.039 163.709L-23.039 162.369L-21.249 161.328L-21.249 163.709ZM-16.358 170.450L-18.142 170.450L-18.142 161.144L-16.358 161.144L-16.358 170.450ZM-9.976 168.304L-9.976 168.304L-8.199 168.603Q-8.542 169.580-9.281 170.091Q-10.021 170.602-11.132 170.602L-11.132 170.602Q-12.890 170.602-13.734 169.453L-13.734 169.453Q-14.401 168.533-14.401 167.130L-14.401 167.130Q-14.401 165.454-13.525 164.505Q-12.649 163.556-11.309 163.556L-11.309 163.556Q-9.805 163.556-8.935 164.550Q-8.066 165.543-8.104 167.594L-8.104 167.594L-12.573 167.594Q-12.554 168.387-12.141 168.828Q-11.728 169.269-11.113 169.269L-11.113 169.269Q-10.694 169.269-10.408 169.041Q-10.122 168.812-9.976 168.304ZM-12.541 166.502L-9.875 166.502Q-9.894 165.727-10.275 165.324Q-10.656 164.921-11.202 164.921L-11.202 164.921Q-11.786 164.921-12.166 165.346L-12.166 165.346Q-12.547 165.772-12.541 166.502L-12.541 166.502ZM0.182 161.144L0.182 170.450L-1.474 170.450L-1.474 169.460Q-1.887 170.037-2.449 170.320Q-3.011 170.602-3.582 170.602L-3.582 170.602Q-4.743 170.602-5.572 169.666Q-6.400 168.730-6.400 167.054L-6.400 167.054Q-6.400 165.340-5.594 164.448Q-4.788 163.556-3.556 163.556L-3.556 163.556Q-2.427 163.556-1.601 164.496L-1.601 164.496L-1.601 161.144L0.182 161.144ZM-4.578 166.933L-4.578 166.933Q-4.578 168.012-4.280 168.495L-4.280 168.495Q-3.848 169.193-3.074 169.193L-3.074 169.193Q-2.458 169.193-2.027 168.669Q-1.595 168.146-1.595 167.105L-1.595 167.105Q-1.595 165.943-2.014 165.432Q-2.433 164.921-3.087 164.921L-3.087 164.921Q-3.721 164.921-4.150 165.426Q-4.578 165.930-4.578 166.933Z M8.310 169.787L8.310 169.787Q8.894 168.454 9.564 167.238Q10.233 166.022 10.944 164.994L10.944 164.994Q11.782 163.788 12.264 163.255L12.264 163.255Q12.575 162.912 12.848 162.690L12.848 162.690Q13.007 162.563 13.350 162.500L13.350 162.500Q14.181 162.347 14.512 162.347L14.512 162.347Q14.658 162.347 14.658 162.449L14.658 162.449Q14.658 162.544 14.512 162.677L14.512 162.677Q13.242 163.807 11.849 165.908Q10.455 168.009 9.497 170.371L9.497 170.371Q9.135 171.253 8.992 171.453Q8.849 171.653 8.100 171.653L8.100 171.653Q7.612 171.653 7.488 171.558Q7.364 171.462 7.040 170.955L7.040 170.955Q6.482 170.110 5.841 169.431L5.841 169.431Q5.504 169.076 5.504 168.885L5.504 168.885Q5.504 168.619 5.879 168.362Q6.253 168.104 6.494 168.104L6.494 168.104Q6.831 168.104 7.304 168.482Q7.777 168.860 8.310 169.787Z"/>
  </g><!-- /pill-settled -->


  <!-- ════════════════════════════════════════════════════════════
       PILL 3 — Paris · 3 friends  (bottom right)
       rect: x=287 y=213 w=144 h=30  |  label fill rgba(255,255,255,0.36)
       ═══════════════════════════════════════════════════════════ -->
  <g id="pill-location">
    <rect x="287" y="213" width="144" height="30" rx="15"
          fill="rgba(255,255,255,0.05)"
          stroke="rgba(255,255,255,0.13)" stroke-width="1"/>
    <!-- Label paths — Arial Bold 13px, centred on (359, 228) -->
    <path id="pill-location-label" fill="rgba(255,255,255,0.36)" d="M307.697 232.653L305.818 232.653L305.818 223.347L308.833 223.347Q310.547 223.347 311.068 223.487L311.068 223.487Q311.867 223.696 312.407 224.398Q312.946 225.099 312.946 226.210L312.946 226.210Q312.946 227.067 312.635 227.651Q312.324 228.235 311.845 228.568Q311.366 228.901 310.871 229.009L310.871 229.009Q310.198 229.143 308.922 229.143L308.922 229.143L307.697 229.143L307.697 232.653ZM308.605 224.921L307.697 224.921L307.697 227.562L308.725 227.562Q309.836 227.562 310.211 227.416Q310.585 227.270 310.798 226.959Q311.010 226.648 311.010 226.235L311.010 226.235Q311.010 225.728 310.712 225.397Q310.414 225.067 309.957 224.985L309.957 224.985Q309.620 224.921 308.605 224.921L308.605 224.921ZM316.459 227.968L316.459 227.968L314.841 227.676Q315.114 226.699 315.780 226.229Q316.447 225.759 317.761 225.759L317.761 225.759Q318.954 225.759 319.538 226.042Q320.122 226.324 320.360 226.759Q320.598 227.194 320.598 228.355L320.598 228.355L320.579 230.438Q320.579 231.326 320.665 231.748Q320.750 232.170 320.985 232.653L320.985 232.653L319.221 232.653Q319.151 232.475 319.049 232.126L319.049 232.126Q319.005 231.967 318.986 231.917L318.986 231.917Q318.529 232.361 318.008 232.583Q317.488 232.805 316.897 232.805L316.897 232.805Q315.856 232.805 315.256 232.240Q314.657 231.675 314.657 230.812L314.657 230.812Q314.657 230.241 314.929 229.793Q315.202 229.346 315.694 229.108Q316.186 228.870 317.113 228.692L317.113 228.692Q318.364 228.457 318.846 228.254L318.846 228.254L318.846 228.076Q318.846 227.562 318.592 227.343Q318.338 227.124 317.634 227.124L317.634 227.124Q317.158 227.124 316.891 227.311Q316.624 227.499 316.459 227.968ZM318.846 229.771L318.846 229.416Q318.503 229.530 317.761 229.688Q317.018 229.847 316.789 230.000L316.789 230.000Q316.440 230.247 316.440 230.628L316.440 230.628Q316.440 231.002 316.720 231.275Q316.999 231.548 317.430 231.548L317.430 231.548Q317.913 231.548 318.351 231.231L318.351 231.231Q318.675 230.990 318.776 230.641L318.776 230.641Q318.846 230.412 318.846 229.771L318.846 229.771ZM324.714 230.571L324.714 232.653L322.930 232.653L322.930 225.912L324.587 225.912L324.587 226.870Q325.012 226.191 325.352 225.975Q325.691 225.759 326.123 225.759L326.123 225.759Q326.732 225.759 327.297 226.096L327.297 226.096L326.745 227.651Q326.294 227.359 325.907 227.359L325.907 227.359Q325.533 227.359 325.272 227.565Q325.012 227.771 324.863 228.311Q324.714 228.851 324.714 230.571L324.714 230.571ZM330.499 224.998L328.715 224.998L328.715 223.347L330.499 223.347L330.499 224.998ZM330.499 232.653L328.715 232.653L328.715 225.912L330.499 225.912L330.499 232.653ZM332.349 230.729L332.349 230.729L334.139 230.457Q334.253 230.977 334.602 231.247Q334.951 231.517 335.580 231.517L335.580 231.517Q336.272 231.517 336.621 231.263L336.621 231.263Q336.856 231.085 336.856 230.787L336.856 230.787Q336.856 230.583 336.729 230.450L336.729 230.450Q336.595 230.323 336.132 230.215L336.132 230.215Q333.974 229.739 333.396 229.346L333.396 229.346Q332.596 228.800 332.596 227.829L332.596 227.829Q332.596 226.953 333.288 226.356Q333.980 225.759 335.434 225.759L335.434 225.759Q336.817 225.759 337.490 226.210Q338.163 226.661 338.417 227.543L338.417 227.543L336.735 227.854Q336.627 227.460 336.326 227.251Q336.024 227.042 335.465 227.042L335.465 227.042Q334.761 227.042 334.456 227.238L334.456 227.238Q334.253 227.378 334.253 227.600L334.253 227.600Q334.253 227.791 334.431 227.924L334.431 227.924Q334.672 228.102 336.097 228.425Q337.522 228.749 338.087 229.219L338.087 229.219Q338.646 229.695 338.646 230.545L338.646 230.545Q338.646 231.472 337.871 232.139Q337.097 232.805 335.580 232.805L335.580 232.805Q334.202 232.805 333.399 232.247Q332.596 231.688 332.349 230.729ZM347.239 229.016L345.455 229.016L345.455 227.232L347.239 227.232L347.239 229.016ZM353.916 230.184L353.916 230.184L355.642 229.974Q355.725 230.634 356.086 230.983Q356.448 231.333 356.962 231.333L356.962 231.333Q357.515 231.333 357.892 230.914Q358.270 230.495 358.270 229.784L358.270 229.784Q358.270 229.111 357.908 228.717Q357.546 228.324 357.026 228.324L357.026 228.324Q356.683 228.324 356.207 228.457L356.207 228.457L356.404 227.003Q357.127 227.022 357.508 226.689Q357.889 226.356 357.889 225.804L357.889 225.804Q357.889 225.334 357.610 225.055Q357.331 224.775 356.867 224.775L356.867 224.775Q356.410 224.775 356.086 225.093Q355.763 225.410 355.693 226.020L355.693 226.020L354.049 225.740Q354.220 224.896 354.566 224.391Q354.912 223.887 355.531 223.598Q356.150 223.309 356.918 223.309L356.918 223.309Q358.232 223.309 359.025 224.147L359.025 224.147Q359.679 224.833 359.679 225.696L359.679 225.696Q359.679 226.921 358.340 227.651L358.340 227.651Q359.140 227.822 359.619 228.419Q360.098 229.016 360.098 229.860L360.098 229.860Q360.098 231.085 359.203 231.948Q358.308 232.812 356.975 232.812L356.975 232.812Q355.712 232.812 354.880 232.085Q354.049 231.358 353.916 230.184ZM365.721 227.314L365.721 225.912L366.711 225.912L366.711 225.404Q366.711 224.553 366.892 224.134Q367.073 223.715 367.559 223.452Q368.044 223.188 368.787 223.188L368.787 223.188Q369.549 223.188 370.279 223.417L370.279 223.417L370.037 224.661Q369.612 224.560 369.218 224.560L369.218 224.560Q368.831 224.560 368.663 224.740Q368.495 224.921 368.495 225.436L368.495 225.436L368.495 225.912L369.828 225.912L369.828 227.314L368.495 227.314L368.495 232.653L366.711 232.653L366.711 227.314L365.721 227.314ZM373.188 230.571L373.188 232.653L371.405 232.653L371.405 225.912L373.061 225.912L373.061 226.870Q373.487 226.191 373.826 225.975Q374.166 225.759 374.597 225.759L374.597 225.759Q375.207 225.759 375.772 226.096L375.772 226.096L375.220 227.651Q374.769 227.359 374.382 227.359L374.382 227.359Q374.007 227.359 373.747 227.565Q373.487 227.771 373.337 228.311Q373.188 228.851 373.188 230.571L373.188 230.571ZM378.974 224.998L377.190 224.998L377.190 223.347L378.974 223.347L378.974 224.998ZM378.974 232.653L377.190 232.653L377.190 225.912L378.974 225.912L378.974 232.653ZM385.355 230.507L385.355 230.507L387.133 230.806Q386.790 231.783 386.051 232.294Q385.311 232.805 384.200 232.805L384.200 232.805Q382.442 232.805 381.598 231.656L381.598 231.656Q380.931 230.736 380.931 229.333L380.931 229.333Q380.931 227.657 381.807 226.708Q382.683 225.759 384.022 225.759L384.022 225.759Q385.527 225.759 386.396 226.753Q387.266 227.746 387.228 229.796L387.228 229.796L382.759 229.796Q382.778 230.590 383.191 231.031Q383.604 231.472 384.219 231.472L384.219 231.472Q384.638 231.472 384.924 231.244Q385.209 231.015 385.355 230.507ZM382.791 228.705L385.457 228.705Q385.438 227.930 385.057 227.527Q384.676 227.124 384.130 227.124L384.130 227.124Q383.546 227.124 383.166 227.549L383.166 227.549Q382.785 227.975 382.791 228.705L382.791 228.705ZM395.463 228.463L395.463 232.653L393.680 232.653L393.680 229.212Q393.680 228.121 393.566 227.800Q393.451 227.479 393.194 227.302Q392.937 227.124 392.575 227.124L392.575 227.124Q392.112 227.124 391.744 227.378Q391.376 227.632 391.239 228.051Q391.103 228.470 391.103 229.600L391.103 229.600L391.103 232.653L389.319 232.653L389.319 225.912L390.976 225.912L390.976 226.902Q391.858 225.759 393.197 225.759L393.197 225.759Q393.788 225.759 394.276 225.972Q394.765 226.185 395.016 226.515Q395.267 226.845 395.365 227.264Q395.463 227.683 395.463 228.463L395.463 228.463ZM404.105 223.347L404.105 232.653L402.448 232.653L402.448 231.663Q402.036 232.240 401.474 232.523Q400.912 232.805 400.341 232.805L400.341 232.805Q399.179 232.805 398.351 231.869Q397.523 230.933 397.523 229.257L397.523 229.257Q397.523 227.543 398.329 226.651Q399.135 225.759 400.366 225.759L400.366 225.759Q401.496 225.759 402.321 226.699L402.321 226.699L402.321 223.347L404.105 223.347ZM399.344 229.136L399.344 229.136Q399.344 230.215 399.643 230.698L399.643 230.698Q400.074 231.396 400.849 231.396L400.849 231.396Q401.465 231.396 401.896 230.872Q402.328 230.349 402.328 229.308L402.328 229.308Q402.328 228.146 401.909 227.635Q401.490 227.124 400.836 227.124L400.836 227.124Q400.201 227.124 399.773 227.629Q399.344 228.133 399.344 229.136ZM405.885 230.729L405.885 230.729L407.675 230.457Q407.789 230.977 408.138 231.247Q408.488 231.517 409.116 231.517L409.116 231.517Q409.808 231.517 410.157 231.263L410.157 231.263Q410.392 231.085 410.392 230.787L410.392 230.787Q410.392 230.583 410.265 230.450L410.265 230.450Q410.132 230.323 409.668 230.215L409.668 230.215Q407.510 229.739 406.932 229.346L406.932 229.346Q406.133 228.800 406.133 227.829L406.133 227.829Q406.133 226.953 406.825 226.356Q407.516 225.759 408.970 225.759L408.970 225.759Q410.354 225.759 411.027 226.210Q411.700 226.661 411.953 227.543L411.953 227.543L410.271 227.854Q410.163 227.460 409.862 227.251Q409.560 227.042 409.002 227.042L409.002 227.042Q408.297 227.042 407.992 227.238L407.992 227.238Q407.789 227.378 407.789 227.600L407.789 227.600Q407.789 227.791 407.967 227.924L407.967 227.924Q408.208 228.102 409.633 228.425Q411.058 228.749 411.623 229.219L411.623 229.219Q412.182 229.695 412.182 230.545L412.182 230.545Q412.182 231.472 411.408 232.139Q410.633 232.805 409.116 232.805L409.116 232.805Q407.739 232.805 406.936 232.247Q406.133 231.688 405.885 230.729Z"/>
  </g><!-- /pill-location -->

</svg>
