<svg xmlns="http://www.w3.org/2000/svg" viewBox="0 0 533.5 544.3">
  <path
    fill="#4285F4"
    d="M533.5 278.4c0-17.4-1.4-34-4-50.1H272v95h147.1c-6.4 34.5-25.9 63.7-55.3 83.3v68h89.4c52.2-48.1 82.3-119.1 82.3-196.2z"
  />
  <path
    fill="#34A853"
    d="M272 544.3c74.4 0 136.8-24.6 182.4-66.7l-89.4-68c-24.9 16.7-56.7 26.5-93 26.5-71.5 0-132-48.3-153.7-113.2H25.9v71.1c45.3 90.1 138.6 150.3 246.1 150.3z"
  />
  <path
    fill="#FBBC05"
    d="M118.3 322.9c-10.4-30.9-10.4-64.3 0-95.2V156.6H25.9c-37.8 75.3-37.8 164.2 0 239.5l92.4-73.2z"
  />
  <path
    fill="#EA4335"
    d="M272 107.7c38.8-.6 76.2 14 104.4 40.7l78-78C406.3 24.5 344 0 272 0 164.5 0 71.2 60.2 25.9 150.3l92.4 71.1C140 156 200.5 107.7 272 107.7z"
  />
</svg>
